<?xml version="1.0" encoding="UTF-8"?>
<svg xmlns="http://www.w3.org/2000/svg" id="Layer_1" data-name="Layer 1" viewBox="0 0 24 24" width="512" height="512"><path d="M23.95,9.89l-1.08,4.04c-.64,2.4-2.83,4.08-5.31,4.08H7.25c-1.75,0-3.24-1.31-3.47-3.04L2.24,3.43c-.03-.25-.25-.43-.5-.43h-.25C.67,3,0,2.33,0,1.5S.67,0,1.5,0h.25C3.5,0,4.99,1.31,5.22,3.04l.26,1.96h6.02c.83,0,1.5,.67,1.5,1.5s-.67,1.5-1.5,1.5H5.88l.88,6.57c.03,.25,.25,.43,.5,.43h10.3c1.13,0,2.12-.76,2.41-1.85l1.08-4.04c.21-.8,1.04-1.28,1.84-1.06,.8,.21,1.27,1.04,1.06,1.84ZM7,20c-1.1,0-2,.9-2,2s.9,2,2,2,2-.9,2-2-.9-2-2-2Zm10,0c-1.1,0-2,.9-2,2s.9,2,2,2,2-.9,2-2-.9-2-2-2Zm-.5-14h6c.83,0,1.5-.67,1.5-1.5s-.67-1.5-1.5-1.5h-6c-.83,0-1.5,.67-1.5,1.5s.67,1.5,1.5,1.5Z"/></svg>
